<svg xmlns="http://www.w3.org/2000/svg" xmlns:xlink="http://www.w3.org/1999/xlink" width="800px" height="800px" viewBox="0 0 33 33" version="1.1">
    
    <title>betting</title>
    <desc>Created with Sketch.</desc>
    <defs>
        <linearGradient x1="50%" y1="0%" x2="50%" y2="100%" id="linearGradient-1">
            <stop stop-color="#FFC923" offset="0%">

</stop>
            <stop stop-color="#FFAD41" offset="100%">

</stop>
        </linearGradient>
        <linearGradient x1="50%" y1="0%" x2="50%" y2="100%" id="linearGradient-2">
            <stop stop-color="#7AA0FA" offset="0%">

</stop>
            <stop stop-color="#4466F3" offset="100%">

</stop>
        </linearGradient>
        <linearGradient x1="50%" y1="0%" x2="50%" y2="100%" id="linearGradient-3">
            <stop stop-color="#2F6DC8" offset="0%">

</stop>
            <stop stop-color="#153B97" offset="100%">

</stop>
        </linearGradient>
        <linearGradient x1="50%" y1="0%" x2="50%" y2="100%" id="linearGradient-4">
            <stop stop-color="#F1F1F5" offset="0%">

</stop>
            <stop stop-color="#DEDEE7" offset="100%">

</stop>
        </linearGradient>
    </defs>
    <g id="icons" stroke="none" stroke-width="1" fill="none" fill-rule="evenodd">
        <g id="ui-gambling-website-lined-icnos-casinoshunter" transform="translate(-1254.000000, -2036.000000)" fill-rule="nonzero">
            <g id="4" transform="translate(50.000000, 1871.000000)">
                <g id="betting" transform="translate(1204.000000, 165.000000)">
                    <g id="coin-copy-7" transform="translate(0.000000, 18.000000)">
                        <path d="M9.19448724,0 C14.2475279,0 18.4044509,2.35686516 18.3879868,5.45386325 C18.3850058,6.00820095 18.2490651,6.5388587 17.999,7.03651391 C18.254839,7.54242421 18.3909933,8.0832737 18.3879868,8.64880276 C18.3713564,11.741266 14.2168268,14.0967742 9.19448724,14.0967742 C4.17214772,14.0967742 0.017618056,11.741266 0.000987543037,8.64878634 C-0.00201887654,8.08326027 0.134135416,7.54241324 0.389495313,7.03608952 C0.13990931,6.53884764 0.00396863596,6.00818747 0.000987543037,5.45384683 C-0.0154764661,2.35686516 4.14144655,0 9.19448724,0 Z" id="coin" fill="url(#linearGradient-1)">

</path>
                        <path d="M18.3880356,5.45974558 L18.3864368,5.49584683 L18.3874368,5.49584683 L18.3887482,8.37025835 C16.6552576,10.5533115 13.1450925,11.9897898 9.19448724,11.9897898 C5.20507612,11.9897898 1.69702664,10.6103356 0.000436801308,8.44022769 L0.000436801308,5.46084683 L15.1744368,5.48984683 L18.3880356,5.45974558 L18.3880356,5.45974558 Z M15.1744368,5.48984683 L0.000842189231,5.45384683 C0.017618056,8.5463265 4.17214772,10.9018347 9.19448719,10.9018347 C14.1183495,10.9018347 18.2080532,8.64344766 18.3823037,5.64078627 L18.3864368,5.49584683 L15.1744368,5.48984683 Z" id="Combined-Shape" fill="#DF960A">

</path>
                    </g>
                    <g id="coin-copy-6" transform="translate(0.000000, 15.000000)">
                        <path d="M9.19448724,0 C14.2475279,0 18.4044509,2.35686516 18.3879868,5.45386325 C18.3850058,6.00820095 18.2490651,6.5388587 17.999,7.03651391 C18.254839,7.54242421 18.3909933,8.0832737 18.3879868,8.64880276 C18.3713564,11.741266 14.2168268,14.0967742 9.19448724,14.0967742 C4.17214772,14.0967742 0.017618056,11.741266 0.000987543037,8.64878634 C-0.00201887654,8.08326027 0.134135416,7.54241324 0.389495313,7.03608952 C0.13990931,6.53884764 0.00396863596,6.00818747 0.000987543037,5.45384683 C-0.0154764661,2.35686516 4.14144655,0 9.19448724,0 Z" id="coin" fill="url(#linearGradient-1)">

</path>
                        <path d="M18.3880356,5.45974558 L18.3864368,5.49584683 L18.3874368,5.49584683 L18.3887482,8.37025835 C16.6552576,10.5533115 13.1450925,11.9897898 9.19448724,11.9897898 C5.20507612,11.9897898 1.69702664,10.6103356 0.000436801308,8.44022769 L0.000436801308,5.46084683 L15.1744368,5.48984683 L18.3880356,5.45974558 L18.3880356,5.45974558 Z M15.1744368,5.48984683 L0.000842189231,5.45384683 C0.017618056,8.5463265 4.17214772,10.9018347 9.19448719,10.9018347 C14.1183495,10.9018347 18.2080532,8.64344766 18.3823037,5.64078627 L18.3864368,5.49584683 L15.1744368,5.48984683 Z" id="Combined-Shape" fill="#DF960A">

</path>
                    </g>
                    <g id="coin-copy-5" transform="translate(0.000000, 12.000000)">
                        <path d="M9.19448724,0 C14.2475279,0 18.4044509,2.35686516 18.3879868,5.45386325 C18.3850058,6.00820095 18.2490651,6.5388587 17.999,7.03651391 C18.254839,7.54242421 18.3909933,8.0832737 18.3879868,8.64880276 C18.3713564,11.741266 14.2168268,14.0967742 9.19448724,14.0967742 C4.17214772,14.0967742 0.017618056,11.741266 0.000987543037,8.64878634 C-0.00201887654,8.08326027 0.134135416,7.54241324 0.389495313,7.03608952 C0.13990931,6.53884764 0.00396863596,6.00818747 0.000987543037,5.45384683 C-0.0154764661,2.35686516 4.14144655,0 9.19448724,0 Z" id="coin" fill="url(#linearGradient-1)">

</path>
                        <path d="M18.3880356,5.45974558 L18.3864368,5.49584683 L18.3874368,5.49584683 L18.3887482,8.37025835 C16.6552576,10.5533115 13.1450925,11.9897898 9.19448724,11.9897898 C5.20507612,11.9897898 1.69702664,10.6103356 0.000436801308,8.44022769 L0.000436801308,5.46084683 L15.1744368,5.48984683 L18.3880356,5.45974558 L18.3880356,5.45974558 Z M15.1744368,5.48984683 L0.000842189231,5.45384683 C0.017618056,8.5463265 4.17214772,10.9018347 9.19448719,10.9018347 C14.1183495,10.9018347 18.2080532,8.64344766 18.3823037,5.64078627 L18.3864368,5.49584683 L15.1744368,5.48984683 Z" id="Combined-Shape" fill="#DF960A">

</path>
                    </g>
                    <g id="coin-copy-4" transform="translate(0.000000, 9.000000)">
                        <path d="M9.19448724,0 C14.2475279,0 18.4044509,2.35686516 18.3879868,5.45386325 C18.3850058,6.00820095 18.2490651,6.5388587 17.999,7.03651391 C18.254839,7.54242421 18.3909933,8.0832737 18.3879868,8.64880276 C18.3713564,11.741266 14.2168268,14.0967742 9.19448724,14.0967742 C4.17214772,14.0967742 0.017618056,11.741266 0.000987543037,8.64878634 C-0.00201887654,8.08326027 0.134135416,7.54241324 0.389495313,7.03608952 C0.13990931,6.53884764 0.00396863596,6.00818747 0.000987543037,5.45384683 C-0.0154764661,2.35686516 4.14144655,0 9.19448724,0 Z" id="coin" fill="url(#linearGradient-1)">

</path>
                        <path d="M18.3880356,5.45974558 L18.3864368,5.49584683 L18.3874368,5.49584683 L18.3887482,8.37025835 C16.6552576,10.5533115 13.1450925,11.9897898 9.19448724,11.9897898 C5.20507612,11.9897898 1.69702664,10.6103356 0.000436801308,8.44022769 L0.000436801308,5.46084683 L15.1744368,5.48984683 L18.3880356,5.45974558 L18.3880356,5.45974558 Z M15.1744368,5.48984683 L0.000842189231,5.45384683 C0.017618056,8.5463265 4.17214772,10.9018347 9.19448719,10.9018347 C14.1183495,10.9018347 18.2080532,8.64344766 18.3823037,5.64078627 L18.3864368,5.49584683 L15.1744368,5.48984683 Z" id="Combined-Shape" fill="#DF960A">

</path>
                    </g>
                    <g id="coin-copy-2" transform="translate(0.000000, 3.000000)">
                        <path d="M9.19448724,0 C14.2475279,0 18.4044509,2.35686516 18.3879868,5.45386325 C18.3850058,6.00820095 18.2490651,6.5388587 17.999,7.03651391 C18.254839,7.54242421 18.3909933,8.0832737 18.3879868,8.64880276 C18.3713564,11.741266 14.2168268,14.0967742 9.19448724,14.0967742 C4.17214772,14.0967742 0.017618056,11.741266 0.000987543037,8.64878634 C-0.00201887654,8.08326027 0.134135416,7.54241324 0.389495313,7.03608952 C0.13990931,6.53884764 0.00396863596,6.00818747 0.000987543037,5.45384683 C-0.0154764661,2.35686516 4.14144655,0 9.19448724,0 Z" id="coin" fill="url(#linearGradient-1)">

</path>
                        <path d="M18.3880356,5.45974558 L18.3864368,5.49584683 L18.3874368,5.49584683 L18.3887482,8.37025835 C16.6552576,10.5533115 13.1450925,11.9897898 9.19448724,11.9897898 C5.20507612,11.9897898 1.69702664,10.6103356 0.000436801308,8.44022769 L0.000436801308,5.46084683 L15.1744368,5.48984683 L18.3880356,5.45974558 L18.3880356,5.45974558 Z M15.1744368,5.48984683 L0.000842189231,5.45384683 C0.017618056,8.5463265 4.17214772,10.9018347 9.19448719,10.9018347 C14.1183495,10.9018347 18.2080532,8.64344766 18.3823037,5.64078627 L18.3864368,5.49584683 L15.1744368,5.48984683 Z" id="Combined-Shape" fill="#DF960A">

</path>
                    </g>
                    <g id="coin-copy-3" transform="translate(0.000000, 6.000000)">
                        <path d="M9.19448724,0 C14.2475279,0 18.4044509,2.35686516 18.3879868,5.45386325 C18.3850058,6.00820095 18.2490651,6.5388587 17.999,7.03651391 C18.254839,7.54242421 18.3909933,8.0832737 18.3879868,8.64880276 C18.3713564,11.741266 14.2168268,14.0967742 9.19448724,14.0967742 C4.17214772,14.0967742 0.017618056,11.741266 0.000987543037,8.64878634 C-0.00201887654,8.08326027 0.134135416,7.54241324 0.389495313,7.03608952 C0.13990931,6.53884764 0.00396863596,6.00818747 0.000987543037,5.45384683 C-0.0154764661,2.35686516 4.14144655,0 9.19448724,0 Z" id="coin" fill="url(#linearGradient-1)">

</path>
                        <path d="M18.3880356,5.45974558 L18.3864368,5.49584683 L18.3874368,5.49584683 L18.3887482,8.37025835 C16.6552576,10.5533115 13.1450925,11.9897898 9.19448724,11.9897898 C5.20507612,11.9897898 1.69702664,10.6103356 0.000436801308,8.44022769 L0.000436801308,5.46084683 L15.1744368,5.48984683 L18.3880356,5.45974558 L18.3880356,5.45974558 Z M15.1744368,5.48984683 L0.000842189231,5.45384683 C0.017618056,8.5463265 4.17214772,10.9018347 9.19448719,10.9018347 C14.1183495,10.9018347 18.2080532,8.64344766 18.3823037,5.64078627 L18.3864368,5.49584683 L15.1744368,5.48984683 Z" id="Combined-Shape" fill="#DF960A">

</path>
                    </g>
                    <g id="coin" transform="translate(0.000000, 3.000000)">
                        <path d="M9.19448724,0 C14.2475279,0 18.4044509,2.35686516 18.3879868,5.45386325 C18.3850058,6.00820095 18.2490651,6.5388587 17.999,7.03651391 C18.254839,7.54242421 18.3909933,8.0832737 18.3879868,8.64880276 C18.3713564,11.741266 14.2168268,14.0967742 9.19448724,14.0967742 C4.17214772,14.0967742 0.017618056,11.741266 0.000987543037,8.64878634 C-0.00201887654,8.08326027 0.134135416,7.54241324 0.389495313,7.03608952 C0.13990931,6.53884764 0.00396863596,6.00818747 0.000987543037,5.45384683 C-0.0154764661,2.35686516 4.14144655,0 9.19448724,0 Z" fill="url(#linearGradient-1)">

</path>
                        <path d="M18.3880356,5.45974558 L18.3864368,5.49584683 L18.3874368,5.49584683 L18.3887482,8.37025835 C16.6552576,10.5533115 13.1450925,11.9897898 9.19448724,11.9897898 C5.20507612,11.9897898 1.69702664,10.6103356 0.000436801308,8.44022769 L0.000436801308,5.46084683 L15.1744368,5.48984683 L18.3880356,5.45974558 L18.3880356,5.45974558 Z M15.1744368,5.48984683 L0.000842189231,5.45384683 C0.017618056,8.5463265 4.17214772,10.9018347 9.19448719,10.9018347 C14.1183495,10.9018347 18.2080532,8.64344766 18.3823037,5.64078627 L18.3864368,5.49584683 L15.1744368,5.48984683 Z" id="Combined-Shape" fill="#DF960A">

</path>
                    </g>
                    <g id="coin-copy-8">
                        <path d="M9.19448724,0 C14.2475279,0 18.4044509,2.35686516 18.3879868,5.45386325 C18.3850058,6.00820095 18.2490651,6.5388587 17.999,7.03651391 C18.254839,7.54242421 18.3909933,8.0832737 18.3879868,8.64880276 C18.3713564,11.741266 14.2168268,14.0967742 9.19448724,14.0967742 C4.17214772,14.0967742 0.017618056,11.741266 0.000987543037,8.64878634 C-0.00201887654,8.08326027 0.134135416,7.54241324 0.389495313,7.03608952 C0.13990931,6.53884764 0.00396863596,6.00818747 0.000987543037,5.45384683 C-0.0154764661,2.35686516 4.14144655,0 9.19448724,0 Z" id="coin" fill="url(#linearGradient-1)">

</path>
                        <path d="M18.3880356,5.45974558 L18.3864368,5.49584683 L18.3874368,5.49584683 L18.3887482,8.37025835 C16.6552576,10.5533115 13.1450925,11.9897898 9.19448724,11.9897898 C5.20507612,11.9897898 1.69702664,10.6103356 0.000436801308,8.44022769 L0.000436801308,5.46084683 L15.1744368,5.48984683 L18.3880356,5.45974558 L18.3880356,5.45974558 Z M15.1744368,5.48984683 L0.000842189231,5.45384683 C0.017618056,8.5463265 4.17214772,10.9018347 9.19448719,10.9018347 C14.1183495,10.9018347 18.2080532,8.64344766 18.3823037,5.64078627 L18.3864368,5.49584683 L15.1744368,5.48984683 Z" id="Combined-Shape" fill="#DF960A">

</path>
                    </g>
                    <g id="chip" transform="translate(12.000000, 12.000000)">
                        <path d="M10.5,0 C16.2989899,0 21,4.70101013 21,10.5 C21,16.2989899 16.2989899,21 10.5,21 C4.70101013,21 0,16.2989899 0,10.5 C0,4.70101013 4.70101013,0 10.5,0 Z" fill="url(#linearGradient-2)">

</path>
                        <path d="M10.5,0 C16.2989899,0 21,4.70101013 21,10.5 C21,16.2989899 16.2989899,21 10.5,21 C4.70101013,21 0,16.2989899 0,10.5 C0,4.79607553 4.54814202,0.154426556 10.2157049,0.00377424464 L10.5,4.4408921e-15 L10.5,4.4408921e-15 L10.5,0 Z M6.6581811,14.8896616 L6.62897727,14.9250421 L6.62897727,14.9250421 L4.18319656,17.3709576 C5.7115272,18.7767563 7.71012989,19.6791956 9.91609434,19.8153652 L9.91613634,16.3044784 C8.6742538,16.1810627 7.54697224,15.6681606 6.6581811,14.8896616 Z M11.0838637,16.3044784 L11.0839057,19.8153652 C13.3734514,19.6740363 15.4396243,18.7072717 16.9884836,17.2090121 C16.9519733,17.1867584 16.9183525,17.1599771 16.8873527,17.1289773 L14.5019039,14.7441401 C13.5902398,15.6040845 12.4015621,16.1735283 11.0838637,16.3044784 Z M4.69522414,11.0808629 L4.66666667,11.0833333 L4.66666667,11.0833333 L1.1846348,11.0839057 C1.31242451,13.1541149 2.11507333,15.0416992 3.37528374,16.529361 L5.80401936,14.1000842 L5.86833224,14.0466757 C5.22535493,13.2082631 4.80489441,12.1902344 4.69522414,11.0808629 Z M15.2683921,13.8609287 L17.7123106,16.3040194 L17.7619596,16.3635266 C18.9430818,14.9025402 19.6922777,13.0779391 19.8153652,11.0839057 L16.3333333,11.0833333 L16.3047759,11.0808629 C16.2030818,12.1095509 15.8341605,13.0596996 15.2683921,13.8609287 Z M10.5,5.83333333 C7.92267117,5.83333333 5.83333333,7.92267117 5.83333333,10.5 C5.83333333,13.0773288 7.92267117,15.1666667 10.5,15.1666667 C13.0773288,15.1666667 15.1666667,13.0773288 15.1666667,10.5 C15.1666667,7.92267117 13.0773288,5.83333333 10.5,5.83333333 Z M1.1846348,9.91609434 L4.66666667,9.91666667 L4.69522414,9.91913709 C4.80489441,8.80976562 5.22535493,7.79173687 5.86833224,6.9533243 L5.80401936,6.89991582 L3.37528374,4.47063902 C2.11507333,5.95830081 1.31242451,7.84588509 1.1846348,9.91609434 Z M17.5192454,4.34828296 L15.0351945,6.83093345 C15.732535,7.69182016 16.1897118,8.75520436 16.3047759,9.91913709 L16.3333333,9.91666667 L16.3333333,9.91666667 L19.8153652,9.91609434 C19.6840457,7.78870203 18.8400704,5.85416292 17.5192454,4.34828296 Z M4.18319656,3.62904238 L6.62897727,6.07495791 C6.64022694,6.08620758 6.65092107,6.09780242 6.66105966,6.10970834 C7.54768804,5.3312124 8.67606972,4.81811132 9.91913709,4.69522414 C9.91692711,4.68695317 9.91666667,4.67684033 9.91666667,4.66666667 L9.91609434,1.1846348 C7.71012989,1.32080439 5.7115272,2.22324368 4.18319656,3.62904238 Z M11.0839057,1.1846348 L11.0833333,4.66666667 L11.0808629,4.69522414 C12.2655308,4.81233806 13.3460357,5.2838625 14.2148825,6.00230227 L16.6960861,3.51991934 C15.1839247,2.17662321 13.2322505,1.31724766 11.0839057,1.1846348 Z" fill="url(#linearGradient-3)">

</path>
                        <path d="M10.895716,9.97165493 C10.3049765,9.74934272 10.1057042,9.61507042 10.1057042,9.43937793 C10.1057042,9.23409624 10.2930047,9.12116197 10.6334977,9.12116197 C10.8477817,9.12116197 11.0485446,9.15076291 11.2470657,9.2114554 C11.3624531,9.24703052 11.4912911,9.23335681 11.5969249,9.1743662 C11.7029577,9.11481221 11.7812324,9.01329812 11.8115845,8.89528169 L11.8179577,8.87018779 C11.8831221,8.61679577 11.7302817,8.35625587 11.4770892,8.28920188 C11.3032629,8.24348592 11.1096009,8.2135446 10.9005986,8.20052817 L10.9005986,7.99676056 C10.9006103,7.76883803 10.7150117,7.58333333 10.4870423,7.58333333 C10.2589437,7.58333333 10.0735211,7.76883803 10.0735211,7.99676056 L10.0735211,8.25908451 C9.3453169,8.42235915 8.89583333,8.91590376 8.89583333,9.55793427 C8.89583333,10.3601291 9.59235915,10.6974296 10.1990023,10.901561 C10.6956925,11.0694014 10.8891901,11.2203521 10.8891901,11.4398474 C10.8891901,11.6655516 10.6659155,11.8001995 10.2919131,11.8001995 C10.0397887,11.8001995 9.78244131,11.7537559 9.52663146,11.6623826 C9.41273474,11.6215493 9.28276995,11.6309038 9.17600939,11.6874648 C9.06795775,11.7447653 8.98870892,11.8455399 8.95838028,11.9635329 L8.94453052,12.0182277 C8.88025822,12.268439 9.02301643,12.5261385 9.26929577,12.6051878 C9.50565728,12.6808685 9.77626761,12.7310798 10.0384977,12.7484624 L10.0384977,13.0013263 C10.0384977,13.2292488 10.2240962,13.4146831 10.4518662,13.4146831 C10.6799883,13.4146831 10.8653873,13.2292488 10.8653873,13.0011385 L10.8653873,12.6913732 C11.6213028,12.538169 12.1062089,12.0139202 12.1062089,11.3421009 C12.1062089,10.680939 11.7437911,10.2707629 10.895716,9.97165493 Z" id="Path" fill="url(#linearGradient-4)">

</path>
                    </g>
                </g>
            </g>
        </g>
    </g>
</svg>